<svg width="160" height="160" viewBox="0 0 160 160" fill="none" xmlns="http://www.w3.org/2000/svg">
<path d="M65.8142 10.9908C74.1649 4.52094 85.8351 4.52095 94.1858 10.9908C98.4394 14.2864 103.708 15.9982 109.086 15.8322C119.645 15.5063 129.086 22.366 132.039 32.5086C133.543 37.675 136.799 42.1565 141.248 45.1835C149.982 51.1261 153.588 62.2252 150.015 72.1665C148.195 77.2303 148.195 82.7697 150.015 87.8335C153.588 97.7748 149.982 108.874 141.248 114.816C136.799 117.843 133.543 122.325 132.039 127.491C129.086 137.634 119.645 144.494 109.086 144.168C103.708 144.002 98.4394 145.714 94.1858 149.009C85.8351 155.479 74.1649 155.479 65.8142 149.009C61.5606 145.714 56.2923 144.002 50.914 144.168C40.3552 144.494 30.9138 137.634 27.9609 127.491C26.4568 122.325 23.2008 117.843 18.752 114.816C10.0183 108.874 6.41199 97.7748 9.98474 87.8335C11.8046 82.7697 11.8046 77.2303 9.98474 72.1665C6.41199 62.2252 10.0183 51.1261 18.752 45.1835C23.2008 42.1565 26.4568 37.675 27.9609 32.5086C30.9138 22.366 40.3552 15.5063 50.914 15.8322C56.2923 15.9982 61.5606 14.2864 65.8142 10.9908Z" fill="#015300"/>
<rect x="25" y="25" width="110" height="110" rx="55" fill="white"/>
<path d="M64.5699 99C61.744 99 59.2301 98.5485 57.0281 97.6454C54.8383 96.7304 53.1195 95.4842 51.8717 93.9068C50.6239 92.3295 50 90.5415 50 88.5428C50 87.0016 50.3548 85.5868 51.0643 84.2985C51.7861 82.9981 52.7647 81.9205 54.0003 81.0656C55.2359 80.1987 56.6182 79.6448 58.1474 79.404V79.1511C56.1411 78.7538 54.5141 77.7966 53.2663 76.2795C52.0185 74.7503 51.3946 72.9743 51.3946 70.9515C51.3946 69.0371 51.9635 67.3333 53.1012 65.8403C54.2389 64.3352 55.7986 63.1553 57.7804 62.3004C59.7744 61.4335 62.0376 61 64.5699 61C67.1022 61 69.3593 61.4335 71.3411 62.3004C73.3351 63.1673 74.901 64.3533 76.0387 65.8584C77.1764 67.3514 77.7514 69.0491 77.7636 70.9515C77.7514 72.9864 77.1152 74.7624 75.8552 76.2795C74.5952 77.7966 72.9804 78.7538 71.0108 79.1511V79.404C72.5155 79.6448 73.8795 80.1987 75.1028 81.0656C76.3384 81.9205 77.3171 82.9981 78.0388 84.2985C78.7728 85.5868 79.146 87.0016 79.1582 88.5428C79.146 90.5415 78.5159 92.3295 77.2681 93.9068C76.0203 95.4842 74.2954 96.7304 72.0934 97.6454C69.9037 98.5485 67.3958 99 64.5699 99ZM64.5699 93.2567C65.83 93.2567 66.931 93.0339 67.8729 92.5884C68.8149 92.1309 69.5489 91.5048 70.0749 90.7101C70.6132 89.9034 70.8823 88.9762 70.8823 87.9287C70.8823 86.8571 70.6071 85.9119 70.0566 85.0932C69.5061 84.2624 68.7598 83.6122 67.8179 83.1426C66.8759 82.661 65.7933 82.4202 64.5699 82.4202C63.3588 82.4202 62.2762 82.661 61.322 83.1426C60.3678 83.6122 59.6154 84.2624 59.0649 85.0932C58.5266 85.9119 58.2575 86.8571 58.2575 87.9287C58.2575 88.9762 58.5205 89.9034 59.0466 90.7101C59.5726 91.5048 60.3127 92.1309 61.2669 92.5884C62.2211 93.0339 63.3221 93.2567 64.5699 93.2567ZM64.5699 76.731C65.622 76.731 66.5578 76.5203 67.3775 76.0989C68.1971 75.6774 68.8394 75.0935 69.3042 74.347C69.7691 73.6004 70.0015 72.7395 70.0015 71.7643C70.0015 70.801 69.7691 69.9582 69.3042 69.2357C68.8394 68.5013 68.2032 67.9293 67.3958 67.52C66.5884 67.0985 65.6465 66.8878 64.5699 66.8878C63.5056 66.8878 62.5637 67.0985 61.744 67.52C60.9244 67.9293 60.2821 68.5013 59.8173 69.2357C59.3646 69.9582 59.1383 70.801 59.1383 71.7643C59.1383 72.7395 59.3707 73.6004 59.8356 74.347C60.3005 75.0935 60.9427 75.6774 61.7624 76.0989C62.582 76.5203 63.5179 76.731 64.5699 76.731Z" fill="#015300"/>
<path d="M86.2 98.4943L101.779 68.1521V67.8992H83.631V61.5057H110V67.9895L94.4025 98.4943H86.2Z" fill="#015300"/>
<rect width="56" height="21" transform="translate(52 101)" fill="white"/>
<path d="M56.513 106.818H58.9242L61.2459 111.203H61.3453L63.6671 106.818H66.0783L62.3645 113.401V117H60.2267V113.401L56.513 106.818ZM67.2541 117V106.818H74.1149V108.593H69.4068V111.019H73.7619V112.794H69.4068V115.225H74.1348V117H67.2541ZM77.5813 117H75.2745L78.7894 106.818H81.5636L85.0735 117H82.7667L80.2163 109.145H80.1367L77.5813 117ZM77.4371 112.998H82.886V114.678H77.4371V112.998ZM86.299 117V106.818H90.3161C91.085 106.818 91.7412 106.956 92.2848 107.231C92.8317 107.503 93.2476 107.889 93.5327 108.389C93.821 108.886 93.9652 109.471 93.9652 110.144C93.9652 110.82 93.8194 111.402 93.5277 111.889C93.236 112.373 92.8134 112.744 92.2599 113.003C91.7098 113.261 91.0436 113.391 90.2614 113.391H87.5717V111.661H89.9134C90.3243 111.661 90.6657 111.604 90.9375 111.491C91.2093 111.379 91.4115 111.21 91.544 110.984C91.6799 110.759 91.7479 110.479 91.7479 110.144C91.7479 109.806 91.6799 109.521 91.544 109.289C91.4115 109.057 91.2076 108.881 90.9325 108.762C90.6607 108.639 90.3177 108.578 89.9034 108.578H88.4517V117H86.299ZM91.7976 112.366L94.3281 117H91.9517L89.4759 112.366H91.7976ZM101.01 109.746C100.97 109.345 100.799 109.034 100.498 108.812C100.196 108.59 99.7869 108.479 99.2699 108.479C98.9186 108.479 98.6219 108.528 98.38 108.628C98.138 108.724 97.9524 108.858 97.8232 109.031C97.6972 109.203 97.6342 109.398 97.6342 109.617C97.6276 109.799 97.6657 109.959 97.7486 110.094C97.8348 110.23 97.9524 110.348 98.1016 110.447C98.2507 110.544 98.4231 110.628 98.6186 110.701C98.8142 110.771 99.023 110.83 99.245 110.88L100.16 111.099C100.604 111.198 101.012 111.331 101.383 111.496C101.754 111.662 102.076 111.866 102.347 112.108C102.619 112.35 102.83 112.635 102.979 112.963C103.131 113.291 103.209 113.667 103.212 114.092C103.209 114.715 103.05 115.255 102.735 115.712C102.424 116.166 101.973 116.519 101.383 116.771C100.796 117.02 100.089 117.144 99.2599 117.144C98.438 117.144 97.7221 117.018 97.1122 116.766C96.5057 116.514 96.0317 116.142 95.6903 115.648C95.3523 115.151 95.175 114.536 95.1584 113.803H97.2415C97.2647 114.145 97.3625 114.43 97.5348 114.658C97.7105 114.884 97.9441 115.054 98.2358 115.17C98.5308 115.283 98.8639 115.339 99.2351 115.339C99.5997 115.339 99.9162 115.286 100.185 115.18C100.456 115.074 100.667 114.927 100.816 114.738C100.965 114.549 101.04 114.332 101.04 114.087C101.04 113.858 100.972 113.666 100.836 113.51C100.703 113.354 100.508 113.222 100.249 113.112C99.9941 113.003 99.6809 112.903 99.3097 112.814L98.201 112.536C97.3426 112.327 96.6648 112 96.1676 111.556C95.6705 111.112 95.4235 110.514 95.4268 109.761C95.4235 109.145 95.5876 108.606 95.919 108.146C96.2538 107.685 96.7128 107.325 97.2962 107.067C97.8795 106.808 98.5424 106.679 99.2848 106.679C100.04 106.679 100.7 106.808 101.263 107.067C101.83 107.325 102.271 107.685 102.586 108.146C102.901 108.606 103.063 109.14 103.073 109.746H101.01Z" fill="#015300"/>
</svg>
